<?xml version="1.0" encoding="utf-8"?>
<!-- Generator: Adobe Illustrator 13.0.0, SVG Export Plug-In . SVG Version: 6.00 Build 14948)  -->
<!DOCTYPE svg PUBLIC "-//W3C//DTD SVG 1.0//EN" "http://www.w3.org/TR/2001/REC-SVG-20010904/DTD/svg10.dtd">
<svg version="1.0" id="Layer_1" xmlns="http://www.w3.org/2000/svg" xmlns:xlink="http://www.w3.org/1999/xlink" x="0px" y="0px"
	 width="568px" height="107px" viewBox="0 0 568 107" enable-background="new 0 0 568 107" xml:space="preserve">
<g>
	<path d="M9.112,100.944L8.972,7.147L33.15,7.111l12.745,32.908c0.691,1.943,1.474,4.169,2.35,6.679
		c0.874,2.511,1.84,5.404,2.898,8.683l2.624,8.259c-0.944-8.14-1.663-15.103-2.157-20.896c-0.495-5.79-0.745-10.649-0.75-14.579
		l-0.031-21.08L75.25,7.048l0.14,93.799l-24.421,0.036L37.393,66.396c-1.423-3.683-2.706-7.134-3.848-10.352
		c-1.144-3.217-2.146-6.285-3.008-9.2c1.02,6.6,1.767,12.351,2.241,17.25c0.475,4.9,0.714,9.193,0.72,12.877l0.036,23.936
		L9.112,100.944z"/>
	<path d="M91.379,100.822l-0.14-93.798l47.081-0.07l0.034,22.478l-21.748,0.032l0.017,11.967l19.5-0.029l0.034,22.478l-19.5,0.029
		l0.022,14.397l21.748-0.032l0.033,22.478L91.379,100.822z"/>
	<path d="M231.479,100.614l-24.514,0.036l-5.93-32.857c-1.155-6.355-2.02-11.863-2.598-16.521c-0.29-2.308-0.538-4.23-0.744-5.77
		c-0.208-1.538-0.352-2.713-0.434-3.523c-0.203,1.663-0.504,4.76-0.905,9.296c-0.183,2.309-0.402,4.74-0.658,7.291
		c-0.256,2.552-0.567,5.247-0.933,8.081l-4.345,34.026l-23.697,0.035L145.683,6.944l25.029-0.038l4.169,25.812
		c1.594,10.286,2.7,18.364,3.316,24.235l0.863,8.565l0.779-7.353c0.808-8.585,1.853-16.748,3.133-24.486l4.537-26.798l21.068-0.031
		l4.142,22.533c1.972,10.486,3.692,22.896,5.162,37.232c0.436-6.441,0.913-12.152,1.433-17.134c0.518-4.982,1.099-9.499,1.741-13.55
		l4.573-29.107l24.726-0.037L231.479,100.614z"/>
	<path d="M306.072,100.446l-25.332,0.038l-0.06-39.73L257.333,6.721l26.425-0.039l4.577,13.905c0.894,2.712,1.698,5.323,2.411,7.833
		c0.711,2.51,1.353,4.919,1.925,7.227c0.926-3.443,1.731-6.413,2.417-8.904c0.686-2.491,1.289-4.507,1.813-6.047l4.597-14.04
		l26.244-0.039l-21.729,54.1L306.072,100.446z"/>
	<path d="M402.424,53.727c0.02,13.806-3.225,25.034-9.73,33.685c-6.468,8.613-14.905,12.929-25.314,12.943
		c-9.234,0.014-17.157-3.277-23.767-9.877c-8.315-8.357-12.485-20.903-12.51-37.642c-0.024-16.034,4.292-28.299,12.946-36.798
		c6.43-6.307,14.059-9.467,22.889-9.479c10.812-0.017,19.425,4.235,25.838,12.75C399.185,27.825,402.402,39.297,402.424,53.727z
		 M376.119,53.979c-0.025-16.637-3.035-24.953-9.028-24.943c-2.997,0.004-5.384,2.191-7.158,6.562
		c-1.737,4.053-2.597,10.011-2.586,17.872c0.012,7.745,0.841,13.749,2.487,18.015c1.646,4.268,3.928,6.397,6.845,6.394
		c2.996-0.004,5.302-2.111,6.915-6.324C375.288,67.343,376.13,61.485,376.119,53.979z"/>
	<path d="M483.119,100.183l-27.397,0.04l-12.563-33.393c-0.122-0.567-0.336-1.315-0.642-2.248c-0.306-0.932-0.683-2.044-1.128-3.34
		l0.19,6.197l0.049,32.804l-25.211,0.038l-0.141-93.798l25.94-0.039c11.421-0.017,19.969,2.219,25.646,6.706
		c7.218,5.741,10.835,13.916,10.851,24.527c0.018,11.34-4.812,19.184-14.484,23.53L483.119,100.183z M441.672,48.546l1.701-0.003
		c2.916-0.004,5.345-1.121,7.286-3.351c1.938-2.231,2.908-5.066,2.902-8.509c-0.011-7.006-3.682-10.505-11.012-10.494l-0.911,0.001
		L441.672,48.546z"/>
	<path d="M563.443,100.063l-27.338,0.04l-16.893-43.229l0.733,43.253l-25.333,0.038l-0.139-93.797l25.332-0.038l-0.607,40.218
		l14.884-40.239l26.729-0.04L540.65,51.558L563.443,100.063z"/>
</g>
</svg>
