<?xml version="1.0" encoding="utf-8"?>
<!-- Generator: Adobe Illustrator 13.0.0, SVG Export Plug-In . SVG Version: 6.00 Build 14948)  -->
<!DOCTYPE svg PUBLIC "-//W3C//DTD SVG 1.0//EN" "http://www.w3.org/TR/2001/REC-SVG-20010904/DTD/svg10.dtd">
<svg version="1.0" id="skyline" xmlns="http://www.w3.org/2000/svg" xmlns:xlink="http://www.w3.org/1999/xlink" x="0px" y="0px"
	 width="696.987px" height="354px" viewBox="0 0 696.987 354" enable-background="new 0 0 696.987 354" xml:space="preserve">
<linearGradient id="SVGID_1_" gradientUnits="userSpaceOnUse" x1="348.4878" y1="321" x2="348.4878" y2="292.5">
	<stop  offset="0" style="stop-color:#FFFFFF"/>
	<stop  offset="0.1166" style="stop-color:#D3D3D3"/>
	<stop  offset="0.2994" style="stop-color:#939393"/>
	<stop  offset="0.4743" style="stop-color:#5F5F5F"/>
	<stop  offset="0.6364" style="stop-color:#363636"/>
	<stop  offset="0.783" style="stop-color:#181818"/>
	<stop  offset="0.909" style="stop-color:#060606"/>
	<stop  offset="1" style="stop-color:#000000"/>
</linearGradient>
<path fill="url(#SVGID_1_)" d="M-0.013,123l8.5-0.5c0,0-1-17,0-19s6.5-2.5,13.5-2s26,1.5,26,1.5l0.5,28.5c0,0,4,2,4-0.5
	s0-15.5,0-15.5s4.5-1.5,9-1.5s9,0,9,0l1.5-6.5c0,0,1.5-1.5,3.5-2s8-1,11-1s5.5,0,7.5,1s2.5,3.5,2.5,3.5l11.5,0.5v6c0,0,13-2,14.5-1
	s2-5,2-7s-0.5-4,2-6.5s2.5-11,2.5-11l2,9c0,0,1-0.5,2,2.5s1.5,5.5,1.5,7.5s1,9,1,9h10.5c0,0,0.5,0.5,0.5,3s0,23,0,23l0.5,3l2-0.5
	l1-51.5V81.5l2-1V64l3-1l0.5-7l2-3.5l3-1c0,0,3.5-4,3.5-6s0.5-15.5,0.5-15.5l2-3.5l1.5-22.5l1,21.5l3.5,1.5v4.5l1,14.5l3,3l1,2.5
	l2.5,1.5l1.5,10.5l3,1l1,15l2,1l0.5,19c0,0,4,0.5,6,1.5s5,5,5,5l1.5,2.5v29l4.5,0.5l1.5,10.5h4l0.5-5l3.5-1v-4l4.5-1l-0.5-8.5
	l13.5-1.5c0,0,6,0.5,8.5,0.5s7.5,4.5,7.5,4.5l4,2l5.5-0.5l1,2.5l4,1V155l6.5-1v-8.5l5-1c0,0,1.5-3.5,5.5-3.5s4-1,7.5-1s4.5,3,5,4.5
	s3.5,1,3.5,1v-6l3.5-1l4-3.5l4.5,1l2.5-8.5h19.5l1.5,14l5,0.5l0.5,11l3-1l0.5-12h9l-1-6h4l0.5-5.5h4.5V118c0,0,3-0.5,5-1.5
	s4-1,5.5-0.5s3.5,4,3.5,4l7,1.5c0,0,2.5,2.5,2,4s0.5,5.5,0.5,5.5l3,2l1.5,2v5.5c0,0,5,1,7,2.5s2.5,4.5,5,5.5s4.5,1.5,4.5,3.5
	s0.5,5.5,0.5,5.5s3-5.5,5.5-6s4.5-1,5-3s2-3,3.5-4s4-1.5,4-1.5s2,0.5,3,2.5s3.5-1.5,3.5-1.5l8-0.5l0.5,5.5c0,0,1,0.5,4-0.5
	s3.5,0,5.5,0.5s3.5,2.5,3.5,2.5l4,1.5v-6.5l10.5-0.5l10.5,0.5l3,2l2.5-3l7.5-0.5l0.5-9.5c0,0,0-4,2.5-4s5,0,5,0l4-9l0.5-6.5
	c0,0,2-1,2.5,1.5s1.5,4,2,6.5s3,8,3,8l2-14.5l26.5,0.5l-0.5,31.5l2-1l0.5-3l2.5-1V139l7,1l0.5,3.5l10-0.5l0.5-4l2-4l16.5-1
	c0,0,0.5-8,1.5-9.5s5.5-17,5.5-17v-7c0,0,0-3,2-2s1.5,5,2,7s2,7.5,2,11s2,6,3,9.5s1,6.5,1,9s0.5,9.5,0.5,9.5l2.5,2l1.5,3.5l7-0.5
	c0,0,1,3,2,4.5s11.5,2,11.5,2l0.5-48.5h13V151c0,0,4,0,5.5,0s4,2,6,0.5s4.5-3.5,7-4s5,0,5.5,2s1,1.5,1,4s1,5.5,1.5,7.5s1.5,4,1.5,4
	s4.5-0.5,5.5-2.5s1.5-3.5,4.5-3.5s-2-1.5,3,0s8,0.5,10,0s3.5-1.5,5,0s7-1,7-1l3-3v199H1.487L-0.013,123z"/>
</svg>
